<svg width="56" height="56" viewBox="0 0 56 56" fill="none" xmlns="http://www.w3.org/2000/svg">
<g filter="url(#filter0_d_61385_209)">
<rect x="4" width="48" height="48" fill="#323238"/>
<path d="M40.1462 24.0731C40.1462 17.4046 34.7416 12 28.0731 12C21.4046 12 16 17.4046 16 24.0731C16 30.1002 20.4142 35.0945 26.1867 36V27.563H23.1212V24.0731H26.1867V21.4132C26.1867 18.3879 27.9882 16.7161 30.7471 16.7161C32.0676 16.7161 33.4494 16.9519 33.4494 16.9519V19.923H31.9261C30.4264 19.923 29.9595 20.8544 29.9595 21.8094V24.0731H33.3079L32.7726 27.563H29.9595V36C35.732 35.0945 40.1462 30.1002 40.1462 24.0731Z" fill="white"/>
</g>
<defs>
<filter id="filter0_d_61385_209" x="0" y="0" width="56" height="56" filterUnits="userSpaceOnUse" color-interpolation-filters="sRGB">
<feFlood flood-opacity="0" result="BackgroundImageFix"/>
<feColorMatrix in="SourceAlpha" type="matrix" values="0 0 0 0 0 0 0 0 0 0 0 0 0 0 0 0 0 0 127 0" result="hardAlpha"/>
<feOffset dy="4"/>
<feGaussianBlur stdDeviation="2"/>
<feComposite in2="hardAlpha" operator="out"/>
<feColorMatrix type="matrix" values="0 0 0 0 0 0 0 0 0 0 0 0 0 0 0 0 0 0 0.25 0"/>
<feBlend mode="normal" in2="BackgroundImageFix" result="effect1_dropShadow_61385_209"/>
<feBlend mode="normal" in="SourceGraphic" in2="effect1_dropShadow_61385_209" result="shape"/>
</filter>
</defs>
</svg>
